HIERARCHY
ROOT Hips
{
  OFFSET 0.000000 0.000000 0.000000
  CHANNELS 6 Xposition Yposition Zposition Xrotation Yrotation Zrotation
  JOINT Spine
  {
    OFFSET 0.000000 10.000000 0.000000
    CHANNELS 3 Xrotation Yrotation Zrotation
    JOINT Chest
    {
      OFFSET 0.000000 15.000000 0.000000
      CHANNELS 3 Xrotation Yrotation Zrotation
      JOINT Neck
      {
        OFFSET 0.000000 15.000000 0.000000
        CHANNELS 3 Xrotation Yrotation Zrotation
        JOINT Head
        {
          OFFSET 0.000000 10.000000 0.000000
          CHANNELS 3 Xrotation Yrotation Zrotation
          End Site
          {
            OFFSET 0.0 5.0 2.0
          }
        }
      }
      JOINT LeftShoulder
      {
        OFFSET 20.000000 5.000000 0.000000
        CHANNELS 3 Xrotation Yrotation Zrotation
        JOINT LeftArm
        {
          OFFSET 15.000000 0.000000 0.000000
          CHANNELS 3 Xrotation Yrotation Zrotation
          JOINT LeftForeArm
          {
            OFFSET 25.000000 0.000000 0.000000
            CHANNELS 3 Xrotation Yrotation Zrotation
            JOINT LeftHand
            {
              OFFSET 20.000000 0.000000 0.000000
              CHANNELS 3 Xrotation Yrotation Zrotation
              End Site
              {
                OFFSET -3.0 0.0 2.0
              }
            }
          }
        }
      }
      JOINT RightShoulder
      {
        OFFSET -20.000000 5.000000 0.000000
        CHANNELS 3 Xrotation Yrotation Zrotation
        JOINT RightArm
        {
          OFFSET -15.000000 0.000000 0.000000
          CHANNELS 3 Xrotation Yrotation Zrotation
          JOINT RightForeArm
          {
            OFFSET -25.000000 0.000000 0.000000
            CHANNELS 3 Xrotation Yrotation Zrotation
            JOINT RightHand
            {
              OFFSET -20.000000 0.000000 0.000000
              CHANNELS 3 Xrotation Yrotation Zrotation
              End Site
              {
                OFFSET 3.0 0.0 2.0
              }
            }
          }
        }
      }
    }
  }
  JOINT LeftUpLeg
  {
    OFFSET 10.000000 -10.000000 0.000000
    CHANNELS 3 Xrotation Yrotation Zrotation
    JOINT LeftLeg
    {
      OFFSET 0.000000 -45.000000 0.000000
      CHANNELS 3 Xrotation Yrotation Zrotation
      JOINT LeftFoot
      {
        OFFSET 0.000000 -45.000000 0.000000
        CHANNELS 3 Xrotation Yrotation Zrotation
        JOINT LeftToeBase
        {
          OFFSET 0.000000 0.000000 10.000000
          CHANNELS 3 Xrotation Yrotation Zrotation
          End Site
          {
            OFFSET 0.0 -1.0 3.0
          }
        }
      }
    }
  }
  JOINT RightUpLeg
  {
    OFFSET -10.000000 -10.000000 0.000000
    CHANNELS 3 Xrotation Yrotation Zrotation
    JOINT RightLeg
    {
      OFFSET 0.000000 -45.000000 0.000000
      CHANNELS 3 Xrotation Yrotation Zrotation
      JOINT RightFoot
      {
        OFFSET 0.000000 -45.000000 0.000000
        CHANNELS 3 Xrotation Yrotation Zrotation
        JOINT RightToeBase
        {
          OFFSET 0.000000 0.000000 10.000000
          CHANNELS 3 Xrotation Yrotation Zrotation
          End Site
          {
            OFFSET 0.0 -1.0 3.0
          }
        }
      }
    }
  }
}
MOTION
Frames: 13
Frame Time: 0.033333
-5.121676 0.474817 -9.392478 -83.778598 -17.711956 -19.710456 -89.362875 5.346879 5.432164 -89.362875 5.346879 5.432164 -70.522161 19.782374 27.715922 64.199991 -10.990541 17.470605 -55.731080 47.590601 -100.365172 20.593817 7.172813 145.078795 -2.290247 -1.497371 114.193569 -2.290247 -1.497371 114.193569 -15.074472 -21.139796 70.720846 31.179717 -56.730402 -54.649845 35.287778 -27.526741 -104.806018 35.287778 -27.526741 -104.806018 9.416535 2.426164 -28.827909 -2.867932 -0.201570 -8.062153 38.168430 -80.367333 -32.458605 -23.679677 -77.123881 18.922676 -11.698760 1.047566 10.203929 -19.650505 2.620882 15.047434 84.022671 -73.595162 -68.737478 4.609893 -82.247042 -3.982386
-6.371819 0.478473 -11.886524 -83.964364 -17.470399 -19.383481 -89.096071 6.567473 6.699600 -89.096071 6.567473 6.699600 -69.938705 20.123375 28.495503 65.036787 -10.523286 16.496831 -56.522861 44.126889 -106.187172 -5.691484 -3.969194 143.319066 -7.947890 -5.810429 112.252423 -7.947890 -5.810429 112.252423 -14.731559 -21.249175 69.107252 31.142280 -56.540991 -54.771975 34.899717 -26.811305 -105.718775 34.899717 -26.811305 -105.718775 9.237289 2.372607 -28.747349 -3.616838 -0.231698 -7.670381 43.355147 -81.421376 -38.211900 -41.613776 -77.940171 36.245938 -11.649563 1.035680 10.134421 -19.979323 2.687051 15.162311 82.453144 -73.649605 -67.234393 3.592555 -81.885861 -3.051593
-6.894578 0.482052 -13.828539 -84.352163 -16.926204 -18.669494 -88.685809 8.067976 8.290283 -88.685809 8.067976 8.290283 -68.969775 20.672690 29.799832 66.248003 -9.732446 14.969868 -57.440777 40.286102 -112.677751 -31.605951 -15.220107 141.178885 -13.395495 -9.997826 110.184323 -13.395495 -9.997826 110.184323 -14.104303 -21.126969 66.953410 30.845727 -56.269487 -54.559963 34.595661 -26.069182 -106.829633 34.595661 -26.069182 -106.829633 8.890472 2.280350 -28.721052 -4.888986 -0.274967 -7.057777 52.170619 -82.517455 -47.355119 -63.930354 -79.200311 58.187423 -11.669296 1.021234 9.981445 -20.370907 2.763165 15.283001 84.256886 -73.389690 -68.591938 3.661442 -81.265534 -3.042348
-6.848980 0.486301 -16.285974 -84.937793 -16.087253 -17.577676 -88.120984 9.950374 10.307193 -88.120984 9.950374 10.307193 -67.680099 21.399017 31.541840 67.959172 -8.638752 12.895037 -58.136317 35.339281 -120.618695 -60.890606 -28.485344 138.259106 -19.534369 -14.851300 107.413420 -19.534369 -14.851300 107.413420 -13.232668 -20.868015 64.185917 30.296526 -55.929978 -54.010144 34.406193 -25.275651 -108.232550 34.406193 -25.275651 -108.232550 8.388407 2.155000 -28.790928 -6.486108 -0.307822 -5.995100 66.142033 -83.709975 -61.466008 -93.454717 -80.881810 87.494288 -11.754617 1.005407 9.759236 -20.830972 2.859876 15.461924 88.379789 -72.646755 -71.622723 5.096550 -80.335861 -4.156078
-5.550534 0.488502 -17.469542 -85.526281 -15.218469 -16.460144 -87.680527 11.141380 11.615400 -87.680527 11.141380 11.615400 -66.608795 22.031514 33.043724 69.501690 -7.801370 11.283152 -57.981317 31.430602 -126.306985 -75.378279 -36.071362 135.740554 -21.999241 -17.123931 105.061275 -21.999241 -17.123931 105.061275 -12.298752 -20.283199 61.968764 29.283704 -55.459032 -52.825706 34.267862 -24.782057 -109.074679 34.267862 -24.782057 -109.074679 7.937317 2.061992 -29.110572 -7.768287 -0.298520 -4.672328 80.413310 -84.205011 -75.212364 -116.698615 -82.530806 111.174771 -11.869747 0.988340 9.494935 -20.950116 2.910030 15.647891 92.659081 -71.303151 -74.330578 9.318350 -79.501010 -7.672968
-4.321683 0.489432 -18.979697 -86.040494 -14.429541 -15.459534 -87.407733 11.809455 12.361071 -87.407733 11.809455 12.361071 -65.850560 22.531306 34.210982 70.741815 -7.455388 10.505894 -55.239897 28.371242 -128.394747 -82.523683 -40.505326 134.486034 -23.837630 -18.494178 104.581175 -23.837630 -18.494178 104.581175 -11.369089 -19.253557 60.803762 27.322312 -54.575282 -50.292171 34.342482 -24.787245 -109.169525 34.342482 -24.787245 -109.169525 7.597869 2.016900 -29.709784 -8.405664 -0.229729 -3.068633 88.474970 -84.042038 -82.554165 -130.928458 -83.790420 126.062791 -11.919272 0.961530 9.186354 -20.577022 2.890709 15.839779 91.096286 -69.821265 -71.487413 13.756399 -78.985333 -11.362974
-3.733586 0.490369 -21.935376 -86.269882 -14.064718 -15.002859 -87.203389 12.295667 12.907051 -87.203389 12.295667 12.907051 -65.463468 22.829782 34.882048 71.773635 -7.429947 10.249471 -51.203315 27.002390 -126.609124 -83.879089 -40.634397 135.307677 -23.969534 -18.150393 105.882859 -23.969534 -18.150393 105.882859 -10.793604 -18.242525 61.011854 24.909800 -53.888398 -46.701842 34.598315 -25.353740 -108.338820 34.598315 -25.353740 -108.338820 7.593880 2.087975 -30.646952 -7.995355 -0.110998 -1.279287 87.522386 -83.410918 -80.992783 -132.098866 -84.423503 127.825177 -11.773998 0.921639 8.912262 -19.707859 2.831266 16.229228 83.519317 -68.373674 -63.129867 17.122845 -78.833687 -14.111831
-3.629675 0.491601 -25.419930 -86.249868 -14.096039 -15.042231 -87.084723 12.529983 13.181521 -87.084723 12.529983 13.181521 -65.311152 22.919792 35.110510 72.809288 -7.573007 10.262881 -47.285340 25.875689 -124.389262 -86.495362 -40.742990 136.988665 -24.625735 -18.162200 107.388985 -24.625735 -18.162200 107.388985 -10.537665 -17.471270 61.989936 22.427584 -53.350882 -42.860179 34.610595 -25.882514 -107.195350 34.610595 -25.882514 -107.195350 7.898807 2.269046 -31.879837 -7.128605 0.018074 0.712619 86.274144 -82.767786 -79.119152 -132.692072 -85.174069 129.049699 -11.588111 0.876939 8.617320 -18.774883 2.812771 16.952714 77.070891 -66.767075 -55.735591 21.458590 -78.546236 -17.594300
-3.005680 0.493399 -28.873187 -86.143077 -14.278066 -15.264763 -86.934438 12.825884 13.528390 -86.934438 12.825884 13.528390 -65.139626 22.878684 35.155701 73.910685 -7.596299 10.102483 -44.450931 26.044704 -120.875944 -88.676789 -39.191827 139.981411 -25.214592 -17.922655 109.517584 -25.214592 -17.922655 109.517584 -10.659967 -17.157393 63.411552 20.621145 -53.460302 -39.673472 34.579215 -26.362386 -106.096491 34.579215 -26.362386 -106.096491 8.289926 2.475740 -33.082543 -6.329684 0.126202 2.734417 85.461841 -82.081411 -77.620788 -135.806955 -85.866718 132.852804 -11.352760 0.832297 8.353227 -17.833583 2.855815 18.149311 72.801752 -64.752900 -50.155969 27.237480 -78.113062 -22.210088
-1.587917 0.496052 -32.516485 -85.951075 -14.599601 -15.660158 -86.771215 13.150364 13.907801 -86.771215 13.150364 13.907801 -64.972071 22.723601 35.029013 74.994391 -7.434535 9.692793 -43.034183 27.024444 -117.363156 -90.206008 -36.850937 143.278611 -25.623031 -17.612680 111.471767 -25.623031 -17.612680 111.471767 -11.206925 -17.484448 64.945803 20.009726 -54.266912 -37.992501 34.695687 -26.820509 -105.292515 34.695687 -26.820509 -105.292515 8.716514 2.677224 -34.023719 -5.642934 0.212896 4.591209 87.673061 -81.392306 -79.119269 -143.145968 -86.156409 140.872877 -10.996598 0.784390 8.124025 -16.986857 2.974881 19.869474 72.018247 -61.790640 -47.115549 35.597520 -77.095803 -28.617294
-0.144803 0.500354 -36.676532 -85.501630 -15.278304 -16.526223 -86.673738 13.342469 14.132932 -86.673738 13.342469 14.132932 -64.887779 22.435805 34.653427 75.764149 -7.311784 9.394787 -43.626997 28.701450 -114.846620 -90.650817 -34.141443 146.131199 -25.112526 -16.797933 112.929122 -25.112526 -16.797933 112.929122 -11.913440 -18.302943 65.814528 20.918407 -55.431174 -38.674032 34.437227 -26.728661 -105.061171 34.437227 -26.728661 -105.061171 9.342549 2.923606 -34.646646 -4.744623 0.241382 6.081618 92.445611 -80.709716 -83.188721 -153.176226 -85.962410 151.482818 -10.539735 0.723200 7.794344 -16.310573 3.160469 21.926856 71.646620 -58.216192 -43.871382 45.368982 -75.444168 -35.670231
1.363223 0.504693 -40.136739 -84.848591 -16.180316 -17.717702 -86.450704 13.715577 14.592069 -86.450704 13.715577 14.592069 -64.315730 22.250165 34.745703 76.331788 -7.037065 8.951021 -48.762624 33.056691 -113.856828 -83.230568 -29.198199 150.055517 -22.280133 -14.568710 114.891866 -22.280133 -14.568710 114.891866 -9.987787 -15.060026 65.013797 18.831500 -48.502791 -39.728399 32.224648 -25.214523 -104.206139 32.224648 -25.214523 -104.206139 10.054756 3.163710 -34.837334 -3.450733 0.201422 6.979948 91.938820 -79.110083 -81.452787 -136.900972 -84.849729 136.331158 -10.149877 0.655454 7.336011 -15.683641 3.342535 24.031960 72.585354 -55.116727 -41.957069 53.343449 -73.385147 -40.904124
3.920143 0.508406 -42.129342 -83.657957 -17.626069 -19.741768 -86.235508 14.078069 15.037058 -86.235508 14.078069 15.037058 -63.974059 22.039591 34.653134 76.282088 -7.165855 9.137988 -59.516797 40.173178 -115.101117 -51.389550 -19.746283 155.292880 -13.294066 -8.994281 117.924738 -13.294066 -8.994281 117.924738 -7.289890 -11.136673 61.851698 15.868030 -40.396223 -40.016133 33.983498 -26.573556 -104.029544 33.983498 -26.573556 -104.029544 11.066113 3.438517 -34.505329 -1.647549 0.116925 6.835782 86.112845 -76.957725 -74.226215 -99.670911 -83.006282 100.350203 -9.950230 0.619583 7.088482 -15.695108 3.686346 26.188120 75.509558 -52.810104 -42.095255 56.165443 -70.597556 -41.533923
